# xmcd
#
# Track frame offsets:
#	150
#	11126
#	21075
#	28705
#	38404
#	45491
#	55270
#	64214
#	74598
#	79618
#	86870
#	94098
#	106359
#	114759
#	124328
#	132013
#	141876
#	149437
#	156792
#	168362
#
# Disc length: 2402 seconds
#
# Revision: 0
# Processed by: cddbd v1.5.2PL0 Copyright (c) Steve Scherf et al.
# Submitted via: EasyCDDAExtractor 16.0.1.1
#
DISCID=0f096014
DTITLE=J  E  Mainer - The Legendary J  E  Mainer - Volume 06
DYEAR=1900
DGENRE=Western
TTITLE0=Fill Me Up A Bottle
TTITLE1=All The Way Around My Susan
TTITLE2=Cotton Mill Colic
TTITLE3=Death Of Floyd Collins
TTITLE4=Same Old Man At The Mill
TTITLE5=My Baby's Got Money All The Time
TTITLE6=Going To Georgia
TTITLE7=Sinking Of The Titanic
TTITLE8=Keep Peace With Uncle Sam
TTITLE9=Monkey On A Dog Cart
TTITLE10=Do Around My Lindy
TTITLE11=Goodbye Booze
TTITLE12=Baptized Sister Lucy Lee
TTITLE13=Hot Time In The Old Town Tonight
TTITLE14=Riley The Furniture Man
TTITLE15=Where Were You When The Train Left Town 
TTITLE16=Georgia Railroad
TTITLE17=Knocking On The Henhouse Door
TTITLE18=Birmingham Will Win The Prize
TTITLE19=Going West In The Fall
EXTD=
EXTT0=
EXTT1=
EXTT2=
EXTT3=
EXTT4=
EXTT5=
EXTT6=
EXTT7=
EXTT8=
EXTT9=
EXTT10=
EXTT11=
EXTT12=
EXTT13=
EXTT14=
EXTT15=
EXTT16=
EXTT17=
EXTT18=
EXTT19=
PLAYORDER=
